<?xml version="1.0" encoding="UTF-8"?>
<svg id="Artwork" xmlns="http://www.w3.org/2000/svg" viewBox="0 0 1846 416">
  <defs>
    <style>
      .cls-1 {
        fill: #0884a0;
      }

      .cls-2 {
        letter-spacing: -.02em;
      }

      .cls-2, .cls-3, .cls-4, .cls-5, .cls-6, .cls-7 {
        fill: #034351;
      }

      .cls-8 {
        font-family: FuturaPT-HeavyObl, 'Futura PT';
        font-size: 144.94px;
        font-style: oblique;
        font-weight: 800;
      }

      .cls-4 {
        stroke: #034351;
      }

      .cls-4, .cls-9, .cls-5 {
        stroke-miterlimit: 10;
        stroke-width: 9.19px;
      }

      .cls-9 {
        fill: #0184a0;
        stroke: #0184a0;
      }

      .cls-5 {
        stroke: #034352;
      }

      .cls-6 {
        letter-spacing: 0em;
      }

      .cls-7 {
        letter-spacing: 0em;
      }
    </style>
  </defs>
  <text class="cls-8" transform="translate(292.63 256.34)"><tspan class="cls-1" x="0" y="0">STENLILLE </tspan><tspan class="cls-6" x="680.2" y="0">F</tspan><tspan class="cls-2" x="750.21" y="0">Y</tspan><tspan class="cls-3" x="838.76" y="0">SI</tspan><tspan class="cls-7" x="962.83" y="0">O</tspan><tspan class="cls-6" x="1078.79" y="0">TERAPI</tspan></text>
  <g>
    <path class="cls-4" d="m232.06,259.12c5.34,4.53,10.67,9.06,16.01,13.59-57.11,68.43-147.11,109.48-224.89,113.24-.6-7.11-1.21-14.21-1.81-21.32,74.93-3.28,159.58-43.21,210.7-105.51Z"/>
    <path class="cls-9" d="m182.87,394.47c6.79,1.45,13.76,2.86,20.55,4.31,6.5-27.11,2.52-79.27-34.6-111.43-8.55-8.66-25.7-20.28-38.06-25.21,21.17-17.98,44.89-49.53,52.43-84.9,0,0,.29-1.68,3.33-22.75h0l-21.09-1.21c-3.39,46.98-30.38,80.86-60.37,102.31-2.39,1.68-7.51,4.61-7.51,10.18,0,2.64,1.13,4.96,1.26,5.19,1.57,2.82,4.08,4.33,5.32,4.69,27.5,8.04,35.43,15.64,38,17.16,11.37,6.75,17.53,14.56,22.14,20.34,17.06,20.35,24.87,54.63,18.6,81.3Z"/>
    <path class="cls-5" d="m55.43,212.14l9.74-18.56c-23.92-12.88-29.52-35.46-8.55-50.96,1.68-1.45,3.91-3.34,7.35-4.96,13.87-6.92,34.38,1.22,45.49,4.38,12.34,3.71,26.99,7.15,39.4,9.31,0,0,0,0,0,0,59.53,9.56,116.14,3.44,164.35-42.42-4.79-5.07-9.59-10.15-14.38-15.22-3.34,3.13-7.78,7.03-13.29,11.17-41.05,33.77-111.89,35.66-166.69,18.08-13.66-4.34-20.25-8.17-28.91-9.37-4.44-.62-7.96-.31-11.19-.13-4.32.24-10.86.61-18.18,3.07-14.45,4.79-29.18,18.46-34.41,31.12-11.34,25.25,4.76,52,29.26,64.48Z"/>
    <path class="cls-9" d="m195.32,17.45c-28.75,2.83-56.88,25.71-56.63,55.83.35,20.52,15.14,34.76,34.19,37.58,21.67,4.42,54.45-8.08,66.32-35.52,7.51-15.57,6.61-42.19-16.1-52.8-2.58,4.13-5.15,8.26-7.73,12.4,12.06,5.66,14.9,18.08,12.44,28.04-2.64,13.22-16.81,28.73-36.37,32.98-4.79,1-12.57,2.52-21.34-.73-17.98-5.69-19.83-25.03-13.19-36.22,3.85-7.56,8.68-12.33,10.16-13.73,14.09-13.11,34.15-16.8,48.24-10.37.01,0,.05.02.06.03,2.58-4.13,5.16-8.26,7.74-12.39-2.47-1.28-6-2.84-10.42-3.95-1.38-.35-8.07-1.96-17.35-1.14Z"/>
  </g>
</svg>