<?xml version="1.0" encoding="UTF-8"?>
<svg id="Artwork" xmlns="http://www.w3.org/2000/svg" viewBox="0 0 593 756">
  <defs>
    <style>
      .cls-1 {
        stroke: #000;
        stroke-miterlimit: 10;
        stroke-width: 12.91px;
      }
    </style>
  </defs>
  <path class="cls-1" d="m418.11,473.93c10,8.49,19.99,16.97,29.99,25.46-106.99,128.2-275.61,205.11-421.32,212.15-1.13-13.31-2.27-26.62-3.4-39.93,140.38-6.15,298.97-80.95,394.73-197.67Z"/>
  <path class="cls-1" d="m325.96,727.48c12.72,2.73,25.78,5.35,38.5,8.08,12.18-50.78,4.73-148.5-64.82-208.76-16.01-16.23-48.15-38-71.31-47.24,39.67-33.69,84.1-92.79,98.23-159.05,0,0,.55-3.15,6.24-42.61h0l-39.51-2.27c-6.34,88.01-56.91,151.49-113.1,191.67-4.48,3.15-14.08,8.63-14.08,19.08,0,4.95,2.12,9.3,2.36,9.73,2.94,5.27,7.64,8.11,9.97,8.79,51.51,15.06,66.38,29.29,71.2,32.15,21.29,12.64,32.83,27.28,41.48,38.11,31.96,38.13,46.6,102.35,34.85,152.32Z"/>
  <path class="cls-1" d="m87.21,385.91l18.24-34.77c-44.81-24.13-55.3-66.43-16.03-95.48,3.14-2.71,7.32-6.26,13.78-9.28,25.98-12.97,64.41,2.29,85.22,8.21,23.12,6.94,50.57,13.4,73.82,17.45,0,0,0,0,0,0,111.53,17.91,217.58,6.45,307.9-79.47-8.98-9.51-17.96-19.01-26.94-28.52-6.26,5.86-14.58,13.16-24.9,20.92-76.91,63.27-209.62,66.8-312.29,33.88-25.6-8.13-37.93-15.3-54.15-17.56-8.32-1.16-14.91-.57-20.96-.24-8.09.45-20.34,1.14-34.05,5.75-27.07,8.98-54.68,34.58-64.46,58.3-21.24,47.3,8.91,97.41,54.82,120.8Z"/>
  <path class="cls-1" d="m349.29,21.17c-53.87,5.31-106.56,48.17-106.1,104.6.66,38.44,28.36,65.12,64.05,70.41,40.61,8.28,102.01-15.14,124.24-66.55,14.08-29.16,12.37-79.04-30.17-98.92-4.83,7.74-9.66,15.48-14.48,23.23,22.6,10.6,27.91,33.88,23.3,52.52-4.95,24.77-31.49,53.83-68.14,61.78-8.97,1.87-23.56,4.72-39.98-1.36-33.68-10.66-37.16-46.89-24.71-67.85,7.21-14.16,16.26-23.09,19.04-25.73,26.4-24.56,63.98-31.48,90.37-19.42.02,0,.09.04.11.05,4.83-7.74,9.66-15.48,14.49-23.22-4.63-2.4-11.24-5.32-19.53-7.4-2.59-.65-15.12-3.68-32.5-2.14Z"/>
</svg>