<?xml version="1.0" encoding="UTF-8"?>
<svg id="Artwork" xmlns="http://www.w3.org/2000/svg" viewBox="0 0 1502 811">
  <defs>
    <style>
      .cls-1 {
        letter-spacing: 0em;
      }

      .cls-2 {
        stroke-width: 10.87px;
      }

      .cls-2, .cls-3 {
        fill: #fff;
        stroke: #fff;
        stroke-miterlimit: 10;
      }

      .cls-3 {
        font-family: FuturaPT-HeavyObl, 'Futura PT';
        font-size: 140.29px;
        font-style: oblique;
        font-weight: 800;
      }

      .cls-4 {
        letter-spacing: 0em;
      }

      .cls-5 {
        letter-spacing: -.02em;
      }
    </style>
  </defs>
  <g>
    <path class="cls-2" d="m856.55,395.68c8.42,7.15,16.83,14.29,25.25,21.44-90.09,107.95-232.08,172.71-354.78,178.64-.95-11.21-1.91-22.42-2.86-33.63,118.21-5.18,251.75-68.17,332.39-166.45Z"/>
    <path class="cls-2" d="m778.96,609.19c10.71,2.29,21.71,4.51,32.42,6.8,10.26-42.76,3.98-125.05-54.58-175.79-13.48-13.67-40.55-32-60.05-39.78,33.4-28.37,70.82-78.14,82.71-133.93,0,0,.46-2.65,5.25-35.88h0l-33.27-1.91c-5.34,74.11-47.93,127.56-95.23,161.4-3.78,2.65-11.86,7.27-11.86,16.06,0,4.17,1.78,7.83,1.99,8.19,2.48,4.44,6.43,6.83,8.4,7.4,43.38,12.68,55.9,24.67,59.95,27.08,17.93,10.64,27.65,22.97,34.93,32.09,26.91,32.11,39.24,86.19,29.34,128.26Z"/>
    <path class="cls-2" d="m577.91,321.56l15.36-29.27c-37.74-20.32-46.57-55.94-13.5-80.4,2.65-2.28,6.16-5.27,11.6-7.82,21.87-10.92,54.24,1.93,71.76,6.91,19.47,5.85,42.58,11.28,62.16,14.69,0,0,0,0,0,0,93.91,15.08,183.21,5.43,259.27-66.92-7.56-8.01-15.12-16.01-22.69-24.02-5.27,4.94-12.28,11.08-20.97,17.62-64.76,53.28-176.52,56.25-262.97,28.53-21.55-6.84-31.94-12.89-45.6-14.78-7-.97-12.55-.48-17.65-.2-6.81.38-17.13.96-28.68,4.85-22.79,7.56-46.04,29.12-54.28,49.1-17.89,39.83,7.51,82.03,46.16,101.72Z"/>
    <path class="cls-2" d="m798.6,14.43c-45.36,4.47-89.73,40.56-89.34,88.08.56,32.37,23.88,54.84,53.94,59.29,34.19,6.97,85.9-12.75,104.62-56.04,11.85-24.56,10.42-66.55-25.4-83.29-4.07,6.52-8.13,13.04-12.2,19.56,19.03,8.92,23.5,28.53,19.62,44.23-4.17,20.86-26.52,45.33-57.38,52.02-7.56,1.58-19.84,3.97-33.66-1.15-28.36-8.97-31.29-39.48-20.81-57.13,6.07-11.93,13.69-19.44,16.03-21.66,22.23-20.68,53.87-26.51,76.1-16.35.02,0,.08.04.09.04,4.07-6.52,8.14-13.03,12.2-19.55-3.9-2.02-9.46-4.48-16.44-6.23-2.18-.55-12.74-3.1-27.37-1.8Z"/>
  </g>
  <text class="cls-3" transform="translate(9.55 790.46)"><tspan x="0" y="0">STENLILLE F</tspan><tspan class="cls-5" x="726.16" y="0">Y</tspan><tspan x="811.88" y="0">SI</tspan><tspan class="cls-1" x="931.97" y="0">O</tspan><tspan class="cls-4" x="1044.2" y="0">TERAPI</tspan></text>
</svg>